<?xml version="1.0" encoding="utf-8"?>
<!-- Generator: Adobe Illustrator 16.0.0, SVG Export Plug-In . SVG Version: 6.00 Build 0)  -->
<!DOCTYPE svg PUBLIC "-//W3C//DTD SVG 1.1//EN" "http://www.w3.org/Graphics/SVG/1.1/DTD/svg11.dtd">
<svg version="1.1" id="Layer_1" xmlns="http://www.w3.org/2000/svg" xmlns:xlink="http://www.w3.org/1999/xlink" x="0px" y="0px"
	 width="595.279px" height="841.89px" viewBox="0 0 595.279 841.89" enable-background="new 0 0 595.279 841.89"
	 xml:space="preserve">
<g>
	<path vector-effect="non-scaling-stroke" fill="none" stroke="#808080" stroke-width="2" d="M171.677,359.28
		c0-0.873,0.707-1.578,1.579-1.578l68.326-0.113c0.524,0,1.016-0.259,1.308-0.693l45.474-66.365c0.492-0.72,0.302-1.7-0.42-2.188
		c-0.261-0.178-0.57-0.273-0.888-0.273l-237.026,0.154c-0.522,0-1.013,0.257-1.308,0.693L3.556,355.088
		c-0.488,0.72-0.302,1.701,0.42,2.189c0.25,0.169,0.545,0.266,0.85,0.272l93.255,0.153c0.87,0,1.577,0.707,1.577,1.577l0,0
		L99.62,552.446c0,0.872,0.706,1.576,1.576,1.576l69.019,0.272c0.871,0,1.577-0.708,1.577-1.577l0,0L171.677,359.28"/>
	<path vector-effect="non-scaling-stroke" fill="none" stroke="#808080" stroke-width="2" d="M363.192,482.774v-92.064
		c0-1.444-1.188-2.613-2.655-2.613H291.71c-0.915,0-1.654,0.739-1.654,1.653l0,0l-0.038,163.118c0,1.004,0.51,1.505,1.538,1.505
		c42.217-0.261,89.626-0.209,142.229,0.149c21.597,0.132,40.86-1.922,57.784-6.157c25.213-6.313,47.348-20.25,66.404-41.82
		c32.815-37.085,39.896-93.563,22.005-139.191c-18.929-48.242-69.479-77.366-121.569-78.598c-37.165-0.873-76.804-1.039-118.92-0.5
		c-2.073,0.025-4.013,1.075-5.189,2.809l-43.012,63.747c-0.572,0.87-0.333,2.038,0.537,2.612c0.31,0.202,0.668,0.311,1.041,0.311
		c62.351-0.383,116.298-0.306,161.85,0.231c19.825,0.256,36.523,8.822,50.089,25.701c10.361,12.899,14.117,29.584,11.272,50.055
		c-4.079,29.545-31.278,50.358-60.285,50.858c-29.289,0.513-59.385,0.676-90.293,0.499
		C364.219,485.06,363.192,484.033,363.192,482.774"/>
</g>
<path fill="#00FFFF" d="M171.6,358.938l0.115,192.847c0,0.865-0.704,1.572-1.572,1.572l0,0l-68.808-0.271
	c-0.868,0-1.572-0.702-1.572-1.572l0.038-192.573c0-0.87-0.705-1.572-1.572-1.572l0,0l-92.971-0.154
	c-0.87-0.019-1.556-0.74-1.538-1.607c0.007-0.302,0.102-0.596,0.271-0.846l45.027-65.97c0.294-0.434,0.784-0.691,1.305-0.691
	l236.302-0.153c0.868,0,1.575,0.703,1.576,1.569c0,0.316-0.093,0.625-0.271,0.885l-45.334,66.161
	c-0.292,0.434-0.782,0.691-1.305,0.691l-68.119,0.114C172.304,357.366,171.6,358.068,171.6,358.938z"/>
<path fill="#A1419B" d="M363.192,482.183c0,1.26,1.027,2.286,2.309,2.309c30.905,0.178,61.004,0.014,90.292-0.5
	c29.008-0.5,56.207-21.312,60.285-50.857c2.848-20.47-0.91-37.154-11.271-50.056c-13.566-16.875-30.264-25.443-50.09-25.699
	c-45.551-0.538-99.501-0.615-161.85-0.23c-1.041,0.002-1.888-0.84-1.891-1.88c0-0.372,0.107-0.732,0.311-1.044l43.012-63.746
	c1.178-1.734,3.118-2.784,5.189-2.809c42.118-0.537,81.757-0.372,118.92,0.5c52.091,1.232,102.641,30.353,121.569,78.598
	c17.891,45.626,10.811,102.106-22.005,139.191c-19.057,21.569-41.191,35.509-66.404,41.819c-16.924,4.232-36.188,6.285-57.784,6.158
	c-52.6-0.358-100.012-0.414-142.229-0.15c-1.028,0-1.538-0.499-1.538-1.504l0.038-163.118c0-0.914,0.739-1.654,1.654-1.654l0,0
	h68.827c1.467,0,2.655,1.17,2.655,2.615V482.183z"/>
</svg>
